# xmcd
#
# Track frame offsets:
#	150
#	10489
#	22767
#	38630
#	50723
#	60793
#	72210
#	83705
#	96165
#	109040
#
# Disc length: 1722 seconds
# Revision: 0
# Processed by: cddbd v1.5.2PL0 Copyright (c) Steve Scherf et al.
# Submitted via: dBpowerAMP V12.0
#
DISCID=7006b80a
DTITLE=Kirk Brandenberger - Fiddler on the Hoof
DYEAR=1988
DGENRE=Country
TTITLE0=Greenleaf Breakdown
TTITLE1=Martha Campbell
TTITLE2=Billy Wilson's Clog
TTITLE3=Rugged Road
TTITLE4=New Broom
TTITLE5=Durang's Hornpipe
TTITLE6=Denver Belle
TTITLE7=St. Anne's Reel
TTITLE8=Festival Waltz
TTITLE9=Orange Blossom Special
EXTD=
EXTT0=
EXTT1=
EXTT2=
EXTT3=
EXTT4=
EXTT5=
EXTT6=
EXTT7=
EXTT8=
EXTT9=
PLAYORDER=
